<mxfile host="app.diagrams.net" modified="2023-10-26T12:51:08.033Z" agent="Mozilla/5.0 (Macintosh; Intel Mac OS X 10_15_7) AppleWebKit/537.36 (KHTML, like Gecko) Chrome/118.0.0.0 Safari/537.36" version="22.0.8" etag="HSn1MhwZnVI5UwHgbTQS" type="github">
  <diagram name="Page-1" id="QqmEqT22RkGPcRaf2DxF">
    <mxGraphModel>
      <root>
        <mxCell id="0" />
        <mxCell id="1" parent="0" />
      </root>
    </mxGraphModel>
  </diagram>
</mxfile>
